<svg width="48" height="50" viewBox="0 0 48 50" fill="none" xmlns="http://www.w3.org/2000/svg">
<g clip-path="url(#clip0_338_103962)">
<path d="M24.7883 29.8668C29.0269 29.8668 32.483 26.3574 32.483 22.0533C32.483 20.3537 31.9179 18.7866 31.0049 17.4843C31.1571 17.5064 31.331 17.5285 31.5049 17.5285C33.3307 17.5285 34.8306 16.0276 34.8306 14.1515C34.8306 12.2753 33.3525 10.7744 31.5049 10.7744C29.6573 10.7744 28.1792 12.2753 28.1792 14.1515C28.1792 14.5046 28.2444 14.8357 28.3531 15.1447C27.288 14.5708 26.0925 14.2177 24.81 14.2177C20.5714 14.2177 17.1152 17.7271 17.1152 22.0312C17.1152 26.3353 20.5714 29.8448 24.81 29.8448L24.7883 29.8668ZM31.5049 13.0258C32.1352 13.0258 32.6569 13.5555 32.6569 14.1956C32.6569 14.8357 32.1352 15.3654 31.5049 15.3654C30.8745 15.3654 30.3528 14.8357 30.3528 14.1956C30.3528 13.5555 30.8745 13.0258 31.5049 13.0258ZM24.7883 17.7713C27.1141 17.7713 29.0052 19.6916 29.0052 22.0533C29.0052 24.415 27.1141 26.3353 24.7883 26.3353C22.4624 26.3353 20.5714 24.415 20.5714 22.0533C20.5714 19.6916 22.4624 17.7713 24.7883 17.7713Z" fill="#333333"/>
<path d="M39.5265 33.465C41.9175 30.2866 43.3522 26.3357 43.3522 22.0537C43.3522 11.6577 35.027 3.2041 24.7891 3.2041C14.5511 3.2041 6.22602 11.6577 6.22602 22.0537C6.22602 26.3357 7.66064 30.2866 10.0517 33.465C7.1607 34.4803 5.05225 37.3497 5.05225 40.7268V42.8236C5.05225 44.2583 5.44351 45.384 6.22602 46.1565C7.53022 47.4588 9.39957 47.4146 11.3559 47.3926H37.2442H38.2223C38.5266 47.3926 38.8527 47.3926 39.157 47.3926C40.7655 47.3926 42.2653 47.2381 43.3522 46.1344C44.1347 45.3619 44.5259 44.2362 44.5259 42.8015V40.7047C44.5259 37.3056 42.4175 34.4583 39.5265 33.443V33.465ZM24.7891 6.73565C33.1142 6.73565 39.8743 13.6001 39.8743 22.0537C39.8743 30.5074 33.1142 37.3718 24.7891 37.3718C16.464 37.3718 9.70388 30.5074 9.70388 22.0537C9.70388 13.6001 16.464 6.73565 24.7891 6.73565ZM41.0481 42.8236C41.0481 43.3754 40.9394 43.6182 40.9177 43.6403C40.6568 43.9052 39.1787 43.8831 38.2875 43.861H12.334H11.2907C10.3995 43.861 8.92136 43.9052 8.66052 43.6403C8.61705 43.5961 8.5301 43.3754 8.5301 42.8236V40.7268C8.5301 38.4313 10.2473 36.5551 12.3557 36.5551H12.9644C16.1814 39.27 20.3113 40.8813 24.7891 40.8813C29.2668 40.8813 33.3968 39.2479 36.6138 36.5551H37.2224C39.3309 36.5551 41.0481 38.4313 41.0481 40.7268V42.8236Z" fill="#333333"/>
</g>
<defs>
<clipPath id="clip0_338_103962">
<rect width="39.4737" height="44.2105" fill="white" transform="translate(5.05225 3.2041)"/>
</clipPath>
</defs>
</svg>
